<svg xmlns="http://www.w3.org/2000/svg" xmlns:xlink="http://www.w3.org/1999/xlink" version="1.1" width="256" height="256" viewBox="0 0 256 256" xml:space="preserve">

<defs>
</defs>
<g style="stroke: none; stroke-width: 0; stroke-dasharray: none; stroke-linecap: butt; stroke-linejoin: miter; stroke-miterlimit: 10; fill: none; fill-rule: nonzero; opacity: 1;" transform="translate(1.4065934065934016 1.4065934065934016) scale(2.81 2.81)" >
	<path d="M 45 0 C 20.147 0 0 20.147 0 45 c 0 24.853 20.147 45 45 45 s 45 -20.147 45 -45 C 90 20.147 69.853 0 45 0 z M 69.384 65.28 c -1.212 1.34 -2.876 2.05 -4.579 2.05 c -0.915 0 -1.841 -0.205 -2.715 -0.627 L 45 58.441 l -17.09 8.262 c -2.5 1.207 -5.432 0.637 -7.294 -1.423 c -1.863 -2.059 -2.139 -5.032 -0.687 -7.398 l 19.787 -32.258 c 1.136 -1.852 3.111 -2.958 5.284 -2.958 h 0 c 2.172 0 4.147 1.106 5.283 2.958 L 70.07 57.882 C 71.522 60.247 71.247 63.221 69.384 65.28 z" style="stroke: none; stroke-width: 1; stroke-dasharray: none; stroke-linecap: butt; stroke-linejoin: miter; stroke-miterlimit: 10; fill: rgb(0,0,0); fill-rule: nonzero; opacity: 1;" transform=" matrix(1 0 0 1 0 0) " stroke-linecap="round" />
	<path d="M 27.326 59.21 l 14.976 -7.239 c 1.715 -0.828 3.681 -0.828 5.394 0 l 14.977 7.239 L 45 30.398 L 27.326 59.21 z" style="stroke: none; stroke-width: 1; stroke-dasharray: none; stroke-linecap: butt; stroke-linejoin: miter; stroke-miterlimit: 10; fill: rgb(0,0,0); fill-rule: nonzero; opacity: 1;" transform=" matrix(1 0 0 1 0 0) " stroke-linecap="round" />
</g>
</svg>