<svg xmlns="http://www.w3.org/2000/svg" xmlns:xlink="http://www.w3.org/1999/xlink" version="1.1" width="256" height="256" viewBox="0 0 256 256" xml:space="preserve">

<defs>
</defs>
<g style="stroke: none; stroke-width: 0; stroke-dasharray: none; stroke-linecap: butt; stroke-linejoin: miter; stroke-miterlimit: 10; fill: none; fill-rule: nonzero; opacity: 1;" transform="translate(1.4065934065934016 1.4065934065934016) scale(2.81 2.81)" >
	<path d="M 45 90 c -0.472 0 -0.879 -0.33 -0.978 -0.791 l -6.018 -28.212 L 9.792 54.979 c -0.461 -0.098 -0.792 -0.506 -0.792 -0.978 s 0.33 -0.88 0.792 -0.978 l 28.211 -6.019 l 6.018 -28.211 c 0.099 -0.461 0.506 -0.792 0.978 -0.792 s 0.879 0.33 0.978 0.792 l 6.018 28.211 l 28.212 6.019 c 0.461 0.098 0.791 0.506 0.791 0.978 s -0.33 0.88 -0.791 0.978 l -28.212 6.019 l -6.018 28.212 C 45.879 89.67 45.472 90 45 90 z M 14.794 54.001 l 24.261 5.176 c 0.386 0.082 0.687 0.383 0.77 0.769 L 45 84.207 l 5.176 -24.262 c 0.082 -0.386 0.383 -0.687 0.769 -0.769 l 24.262 -5.176 l -24.262 -5.176 c -0.386 -0.082 -0.687 -0.383 -0.769 -0.769 L 45 23.795 l -5.175 24.261 c -0.083 0.386 -0.384 0.687 -0.77 0.769 L 14.794 54.001 z" style="stroke: none; stroke-width: 1; stroke-dasharray: none; stroke-linecap: butt; stroke-linejoin: miter; stroke-miterlimit: 10; fill: rgb(0,0,0); fill-rule: nonzero; opacity: 1;" transform=" matrix(1 0 0 1 0 0) " stroke-linecap="round" />
	<path d="M 56.896 50.073 c -0.187 0 -0.375 -0.052 -0.543 -0.161 c -0.464 -0.3 -0.596 -0.92 -0.295 -1.383 l 10.3 -15.887 l -15.887 10.3 c -0.463 0.301 -1.082 0.169 -1.383 -0.295 c -0.301 -0.463 -0.169 -1.083 0.295 -1.383 l 19.82 -12.851 c 0.395 -0.256 0.917 -0.203 1.251 0.132 c 0.334 0.333 0.389 0.855 0.132 1.251 l -12.851 19.82 C 57.545 49.912 57.224 50.073 56.896 50.073 z" style="stroke: none; stroke-width: 1; stroke-dasharray: none; stroke-linecap: butt; stroke-linejoin: miter; stroke-miterlimit: 10; fill: rgb(0,0,0); fill-rule: nonzero; opacity: 1;" transform=" matrix(1 0 0 1 0 0) " stroke-linecap="round" />
	<path d="M 69.748 79.749 c -0.188 0 -0.377 -0.053 -0.544 -0.161 l -19.82 -12.851 c -0.464 -0.3 -0.596 -0.92 -0.295 -1.383 s 0.92 -0.596 1.383 -0.295 l 15.887 10.3 l -10.3 -15.887 c -0.301 -0.463 -0.169 -1.083 0.295 -1.383 c 0.463 -0.301 1.082 -0.17 1.383 0.295 l 12.851 19.82 c 0.257 0.396 0.202 0.917 -0.132 1.251 C 70.262 79.649 70.006 79.749 69.748 79.749 z" style="stroke: none; stroke-width: 1; stroke-dasharray: none; stroke-linecap: butt; stroke-linejoin: miter; stroke-miterlimit: 10; fill: rgb(0,0,0); fill-rule: nonzero; opacity: 1;" transform=" matrix(1 0 0 1 0 0) " stroke-linecap="round" />
	<path d="M 20.252 79.749 c -0.258 0 -0.515 -0.1 -0.708 -0.293 c -0.334 -0.334 -0.389 -0.855 -0.132 -1.251 l 12.851 -19.82 c 0.3 -0.463 0.919 -0.598 1.383 -0.295 c 0.463 0.3 0.596 0.92 0.295 1.383 l -10.3 15.887 l 15.887 -10.3 c 0.462 -0.303 1.082 -0.17 1.383 0.295 c 0.301 0.463 0.168 1.083 -0.295 1.383 l -19.82 12.851 C 20.629 79.696 20.44 79.749 20.252 79.749 z" style="stroke: none; stroke-width: 1; stroke-dasharray: none; stroke-linecap: butt; stroke-linejoin: miter; stroke-miterlimit: 10; fill: rgb(0,0,0); fill-rule: nonzero; opacity: 1;" transform=" matrix(1 0 0 1 0 0) " stroke-linecap="round" />
	<path d="M 33.104 50.073 c -0.328 0 -0.648 -0.16 -0.84 -0.456 l -12.851 -19.82 c -0.257 -0.396 -0.202 -0.917 0.132 -1.251 c 0.333 -0.334 0.855 -0.39 1.251 -0.132 l 19.82 12.851 c 0.463 0.3 0.596 0.919 0.295 1.383 c -0.301 0.463 -0.921 0.595 -1.383 0.295 l -15.887 -10.3 l 10.3 15.887 c 0.301 0.463 0.168 1.083 -0.295 1.383 C 33.479 50.021 33.29 50.073 33.104 50.073 z" style="stroke: none; stroke-width: 1; stroke-dasharray: none; stroke-linecap: butt; stroke-linejoin: miter; stroke-miterlimit: 10; fill: rgb(0,0,0); fill-rule: nonzero; opacity: 1;" transform=" matrix(1 0 0 1 0 0) " stroke-linecap="round" />
	<path d="M 51.153 61.154 c -0.256 0 -0.512 -0.098 -0.707 -0.293 L 38.14 48.555 c -0.391 -0.391 -0.391 -1.023 0 -1.414 s 1.023 -0.391 1.414 0 L 51.86 59.447 c 0.391 0.391 0.391 1.023 0 1.414 C 51.665 61.057 51.409 61.154 51.153 61.154 z" style="stroke: none; stroke-width: 1; stroke-dasharray: none; stroke-linecap: butt; stroke-linejoin: miter; stroke-miterlimit: 10; fill: rgb(0,0,0); fill-rule: nonzero; opacity: 1;" transform=" matrix(1 0 0 1 0 0) " stroke-linecap="round" />
	<path d="M 38.847 61.154 c -0.256 0 -0.512 -0.098 -0.707 -0.293 c -0.391 -0.391 -0.391 -1.023 0 -1.414 l 12.307 -12.307 c 0.391 -0.391 1.023 -0.391 1.414 0 s 0.391 1.023 0 1.414 L 39.554 60.861 C 39.358 61.057 39.103 61.154 38.847 61.154 z" style="stroke: none; stroke-width: 1; stroke-dasharray: none; stroke-linecap: butt; stroke-linejoin: miter; stroke-miterlimit: 10; fill: rgb(0,0,0); fill-rule: nonzero; opacity: 1;" transform=" matrix(1 0 0 1 0 0) " stroke-linecap="round" />
	<path d="M 50.174 14.417 c -0.291 0 -0.574 -0.127 -0.769 -0.36 L 40.826 3.762 v 9.655 c 0 0.552 -0.448 1 -1 1 s -1 -0.448 -1 -1 V 1 c 0 -0.421 0.264 -0.797 0.66 -0.94 c 0.395 -0.141 0.839 -0.023 1.108 0.3 l 8.58 10.295 V 1 c 0 -0.552 0.447 -1 1 -1 s 1 0.448 1 1 v 12.417 c 0 0.421 -0.264 0.797 -0.659 0.94 C 50.403 14.398 50.288 14.417 50.174 14.417 z" style="stroke: none; stroke-width: 1; stroke-dasharray: none; stroke-linecap: butt; stroke-linejoin: miter; stroke-miterlimit: 10; fill: rgb(0,0,0); fill-rule: nonzero; opacity: 1;" transform=" matrix(1 0 0 1 0 0) " stroke-linecap="round" />
</g>
</svg>