<svg xmlns="http://www.w3.org/2000/svg" xmlns:xlink="http://www.w3.org/1999/xlink" version="1.1" width="256" height="256" viewBox="0 0 256 256" xml:space="preserve">

<defs>
</defs>
<g style="stroke: none; stroke-width: 0; stroke-dasharray: none; stroke-linecap: butt; stroke-linejoin: miter; stroke-miterlimit: 10; fill: none; fill-rule: nonzero; opacity: 1;" transform="translate(1.4065934065934016 1.4065934065934016) scale(2.81 2.81)" >
	<path d="M 45 4 c 22.607 0 41 18.393 41 41 S 67.607 86 45 86 S 4 67.607 4 45 S 22.393 4 45 4 M 45 0 C 20.147 0 0 20.147 0 45 s 20.147 45 45 45 s 45 -20.147 45 -45 S 69.853 0 45 0 L 45 0 z" style="stroke: none; stroke-width: 1; stroke-dasharray: none; stroke-linecap: butt; stroke-linejoin: miter; stroke-miterlimit: 10; fill: rgb(0,0,0); fill-rule: nonzero; opacity: 1;" transform=" matrix(1 0 0 1 0 0) " stroke-linecap="round" />
	<path d="M 77.659 42.659 c -1.293 0 -2.341 1.048 -2.341 2.341 s 1.048 2.341 2.341 2.341 S 80 46.293 80 45 S 78.952 42.659 77.659 42.659 L 77.659 42.659 z" style="stroke: none; stroke-width: 1; stroke-dasharray: none; stroke-linecap: butt; stroke-linejoin: miter; stroke-miterlimit: 10; fill: rgb(0,0,0); fill-rule: nonzero; opacity: 1;" transform=" matrix(1 0 0 1 0 0) " stroke-linecap="round" />
	<path d="M 12.341 42.659 C 11.048 42.659 10 43.707 10 45 s 1.048 2.341 2.341 2.341 s 2.341 -1.048 2.341 -2.341 S 13.633 42.659 12.341 42.659 L 12.341 42.659 z" style="stroke: none; stroke-width: 1; stroke-dasharray: none; stroke-linecap: butt; stroke-linejoin: miter; stroke-miterlimit: 10; fill: rgb(0,0,0); fill-rule: nonzero; opacity: 1;" transform=" matrix(1 0 0 1 0 0) " stroke-linecap="round" />
	<path d="M 45 75.319 c -1.293 0 -2.341 1.048 -2.341 2.341 S 43.707 80 45 80 s 2.341 -1.048 2.341 -2.341 S 46.293 75.319 45 75.319 L 45 75.319 z" style="stroke: none; stroke-width: 1; stroke-dasharray: none; stroke-linecap: butt; stroke-linejoin: miter; stroke-miterlimit: 10; fill: rgb(0,0,0); fill-rule: nonzero; opacity: 1;" transform=" matrix(1 0 0 1 0 0) " stroke-linecap="round" />
	<path d="M 50.895 17.392 L 45 6.247 l -5.895 11.145 c 0.737 -0.512 1.474 -0.928 2.211 -1.248 c 0.491 -0.213 0.982 -0.384 1.474 -0.512 c 0.07 -0.018 0.14 -0.029 0.211 -0.046 V 45 h 4 V 15.586 C 48.298 15.892 49.597 16.49 50.895 17.392 z" style="stroke: none; stroke-width: 1; stroke-dasharray: none; stroke-linecap: butt; stroke-linejoin: miter; stroke-miterlimit: 10; fill: rgb(0,0,0); fill-rule: nonzero; opacity: 1;" transform=" matrix(1 0 0 1 0 0) " stroke-linecap="round" />
	<path d="M 50.849 35.695 v 5.469 C 51.574 42.267 52 43.584 52 45 c 0 3.86 -3.14 7 -7 7 s -7 -3.14 -7 -7 c 0 -1.416 0.426 -2.733 1.151 -3.836 v -5.469 C 36.06 37.643 34 41.077 34 45 c 0 6.075 4.925 11 11 11 s 11 -4.925 11 -11 C 56 41.077 53.94 37.643 50.849 35.695 z" style="stroke: none; stroke-width: 1; stroke-dasharray: none; stroke-linecap: butt; stroke-linejoin: miter; stroke-miterlimit: 10; fill: rgb(0,0,0); fill-rule: nonzero; opacity: 1;" transform=" matrix(1 0 0 1 0 0) " stroke-linecap="round" />
</g>
</svg>