<svg xmlns="http://www.w3.org/2000/svg" xmlns:xlink="http://www.w3.org/1999/xlink" version="1.1" width="256" height="256" viewBox="0 0 256 256" xml:space="preserve">

<defs>
</defs>
<g style="stroke: none; stroke-width: 0; stroke-dasharray: none; stroke-linecap: butt; stroke-linejoin: miter; stroke-miterlimit: 10; fill: none; fill-rule: nonzero; opacity: 1;" transform="translate(1.4065934065934016 1.4065934065934016) scale(2.81 2.81)" >
	<path d="M 45 90 c -0.944 0 -1.759 -0.66 -1.956 -1.583 l -7.29 -34.171 l -34.172 -7.29 C 0.66 46.759 0 45.944 0 45 s 0.66 -1.759 1.583 -1.956 l 34.172 -7.29 l 7.29 -34.172 C 43.241 0.66 44.056 0 45 0 s 1.759 0.66 1.956 1.583 l 7.29 34.172 l 34.171 7.29 C 89.34 43.241 90 44.056 90 45 s -0.66 1.759 -1.583 1.956 l -34.171 7.29 l -7.29 34.171 C 46.759 89.34 45.944 90 45 90 z M 11.586 45 l 26.271 5.604 c 0.771 0.165 1.374 0.768 1.539 1.539 L 45 78.414 l 5.604 -26.271 c 0.165 -0.771 0.768 -1.374 1.539 -1.539 L 78.414 45 l -26.271 -5.604 c -0.771 -0.165 -1.374 -0.767 -1.539 -1.539 L 45 11.586 l -5.604 26.271 c -0.165 0.771 -0.767 1.374 -1.539 1.539 L 11.586 45 z" style="stroke: none; stroke-width: 1; stroke-dasharray: none; stroke-linecap: butt; stroke-linejoin: miter; stroke-miterlimit: 10; fill: rgb(0,0,0); fill-rule: nonzero; opacity: 1;" transform=" matrix(1 0 0 1 0 0) " stroke-linecap="round" />
	<path d="M 59.615 40.945 c -0.373 0 -0.75 -0.104 -1.086 -0.322 c -0.927 -0.601 -1.191 -1.839 -0.59 -2.766 l 10.688 -16.485 L 52.143 32.061 c -0.925 0.602 -2.165 0.337 -2.766 -0.59 c -0.602 -0.927 -0.337 -2.165 0.59 -2.766 l 24.351 -15.788 c 0.793 -0.514 1.837 -0.402 2.502 0.264 c 0.668 0.667 0.777 1.71 0.264 2.502 L 61.295 40.033 C 60.912 40.624 60.271 40.945 59.615 40.945 z" style="stroke: none; stroke-width: 1; stroke-dasharray: none; stroke-linecap: butt; stroke-linejoin: miter; stroke-miterlimit: 10; fill: rgb(0,0,0); fill-rule: nonzero; opacity: 1;" transform=" matrix(1 0 0 1 0 0) " stroke-linecap="round" />
	<path d="M 75.404 77.405 c -0.376 0 -0.754 -0.105 -1.087 -0.322 L 49.967 61.295 c -0.927 -0.601 -1.191 -1.839 -0.59 -2.766 c 0.601 -0.928 1.839 -1.193 2.766 -0.59 l 16.484 10.688 L 57.939 52.143 c -0.602 -0.927 -0.337 -2.165 0.59 -2.766 c 0.926 -0.604 2.164 -0.337 2.766 0.59 l 15.788 24.351 c 0.514 0.792 0.404 1.835 -0.264 2.502 C 76.434 77.206 75.921 77.405 75.404 77.405 z" style="stroke: none; stroke-width: 1; stroke-dasharray: none; stroke-linecap: butt; stroke-linejoin: miter; stroke-miterlimit: 10; fill: rgb(0,0,0); fill-rule: nonzero; opacity: 1;" transform=" matrix(1 0 0 1 0 0) " stroke-linecap="round" />
	<path d="M 14.595 77.405 c -0.516 0 -1.028 -0.199 -1.415 -0.586 c -0.667 -0.667 -0.777 -1.71 -0.264 -2.502 l 15.788 -24.351 c 0.6 -0.927 1.839 -1.193 2.766 -0.59 c 0.927 0.601 1.191 1.839 0.59 2.766 L 21.373 68.627 l 16.485 -10.688 c 0.926 -0.604 2.166 -0.337 2.766 0.59 s 0.336 2.165 -0.59 2.766 L 15.682 77.083 C 15.349 77.3 14.971 77.405 14.595 77.405 z" style="stroke: none; stroke-width: 1; stroke-dasharray: none; stroke-linecap: butt; stroke-linejoin: miter; stroke-miterlimit: 10; fill: rgb(0,0,0); fill-rule: nonzero; opacity: 1;" transform=" matrix(1 0 0 1 0 0) " stroke-linecap="round" />
	<path d="M 30.384 40.945 c -0.655 0 -1.297 -0.321 -1.68 -0.912 L 12.916 15.682 c -0.513 -0.792 -0.403 -1.835 0.264 -2.502 c 0.667 -0.668 1.709 -0.778 2.502 -0.264 l 24.351 15.788 c 0.927 0.601 1.191 1.839 0.59 2.766 c -0.601 0.926 -1.841 1.19 -2.766 0.59 L 21.373 21.373 l 10.688 16.485 c 0.601 0.927 0.336 2.165 -0.59 2.766 C 31.134 40.841 30.757 40.945 30.384 40.945 z" style="stroke: none; stroke-width: 1; stroke-dasharray: none; stroke-linecap: butt; stroke-linejoin: miter; stroke-miterlimit: 10; fill: rgb(0,0,0); fill-rule: nonzero; opacity: 1;" transform=" matrix(1 0 0 1 0 0) " stroke-linecap="round" />
	<path d="M 52.561 54.561 c -0.512 0 -1.023 -0.195 -1.414 -0.586 L 36.026 38.854 c -0.781 -0.781 -0.781 -2.047 0 -2.828 c 0.78 -0.781 2.048 -0.781 2.828 0 l 15.121 15.121 c 0.781 0.781 0.781 2.047 0 2.828 C 53.584 54.365 53.072 54.561 52.561 54.561 z" style="stroke: none; stroke-width: 1; stroke-dasharray: none; stroke-linecap: butt; stroke-linejoin: miter; stroke-miterlimit: 10; fill: rgb(0,0,0); fill-rule: nonzero; opacity: 1;" transform=" matrix(1 0 0 1 0 0) " stroke-linecap="round" />
	<path d="M 37.44 54.561 c -0.512 0 -1.024 -0.195 -1.414 -0.586 c -0.781 -0.781 -0.781 -2.047 0 -2.828 l 15.121 -15.121 c 0.781 -0.781 2.047 -0.781 2.828 0 c 0.781 0.781 0.781 2.047 0 2.828 L 38.854 53.975 C 38.464 54.365 37.952 54.561 37.44 54.561 z" style="stroke: none; stroke-width: 1; stroke-dasharray: none; stroke-linecap: butt; stroke-linejoin: miter; stroke-miterlimit: 10; fill: rgb(0,0,0); fill-rule: nonzero; opacity: 1;" transform=" matrix(1 0 0 1 0 0) " stroke-linecap="round" />
</g>
</svg>