<svg xmlns="http://www.w3.org/2000/svg" xmlns:xlink="http://www.w3.org/1999/xlink" version="1.1" width="256" height="256" viewBox="0 0 256 256" xml:space="preserve">

<defs>
</defs>
<g style="stroke: none; stroke-width: 0; stroke-dasharray: none; stroke-linecap: butt; stroke-linejoin: miter; stroke-miterlimit: 10; fill: none; fill-rule: nonzero; opacity: 1;" transform="translate(1.4065934065934016 1.4065934065934016) scale(2.81 2.81)" >
	<path d="M 45 90 C 20.187 90 0 69.813 0 45 C 0 20.187 20.187 0 45 0 c 24.813 0 45 20.187 45 45 C 90 69.813 69.813 90 45 90 z M 45 3 C 21.841 3 3 21.841 3 45 c 0 23.159 18.841 42 42 42 c 23.159 0 42 -18.841 42 -42 C 87 21.841 68.159 3 45 3 z" style="stroke: none; stroke-width: 1; stroke-dasharray: none; stroke-linecap: butt; stroke-linejoin: miter; stroke-miterlimit: 10; fill: rgb(0,0,0); fill-rule: nonzero; opacity: 1;" transform=" matrix(1 0 0 1 0 0) " stroke-linecap="round" />
	<path d="M 62.483 61.955 L 46.392 22.006 c -0.229 -0.567 -0.78 -0.939 -1.392 -0.939 s -1.163 0.372 -1.392 0.939 L 27.517 61.955 c -0.216 0.537 -0.104 1.15 0.288 1.576 c 0.289 0.313 0.691 0.484 1.104 0.484 c 0.148 0 0.297 -0.021 0.442 -0.066 c 9.853 -3.04 20.396 -3.036 31.339 0.012 c 0.55 0.153 1.14 -0.02 1.521 -0.445 S 62.696 62.485 62.483 61.955 z M 58.594 60.328 c -0.032 -0.008 -0.064 -0.012 -0.097 -0.02 c -12.3 -10.634 -13.4 -14.713 -13.489 -33.708 L 58.594 60.328 z" style="stroke: none; stroke-width: 1; stroke-dasharray: none; stroke-linecap: butt; stroke-linejoin: miter; stroke-miterlimit: 10; fill: rgb(0,0,0); fill-rule: nonzero; opacity: 1;" transform=" matrix(1 0 0 1 0 0) " stroke-linecap="round" />
</g>
</svg>