<svg xmlns="http://www.w3.org/2000/svg" xmlns:xlink="http://www.w3.org/1999/xlink" version="1.1" width="256" height="256" viewBox="0 0 256 256" xml:space="preserve">

<defs>
</defs>
<g style="stroke: none; stroke-width: 0; stroke-dasharray: none; stroke-linecap: butt; stroke-linejoin: miter; stroke-miterlimit: 10; fill: none; fill-rule: nonzero; opacity: 1;" transform="translate(1.4065934065934016 1.4065934065934016) scale(2.81 2.81)" >
	<path d="M 45 4 c 22.607 0 41 18.393 41 41 S 67.607 86 45 86 S 4 67.607 4 45 S 22.393 4 45 4 M 45 0 C 20.147 0 0 20.147 0 45 s 20.147 45 45 45 s 45 -20.147 45 -45 S 69.853 0 45 0 L 45 0 z" style="stroke: none; stroke-width: 1; stroke-dasharray: none; stroke-linecap: butt; stroke-linejoin: miter; stroke-miterlimit: 10; fill: rgb(0,0,0); fill-rule: nonzero; opacity: 1;" transform=" matrix(1 0 0 1 0 0) " stroke-linecap="round" />
	<path d="M 45 34.143 l 9.458 28.119 l -8.271 -2.571 L 45 59.322 l -1.187 0.369 l -8.271 2.571 L 45 34.143 M 45 21.596 L 29.256 68.404 L 45 63.51 l 15.744 4.894 L 45 21.596 L 45 21.596 z" style="stroke: none; stroke-width: 1; stroke-dasharray: none; stroke-linecap: butt; stroke-linejoin: miter; stroke-miterlimit: 10; fill: rgb(0,0,0); fill-rule: nonzero; opacity: 1;" transform=" matrix(1 0 0 1 0 0) " stroke-linecap="round" />
	<path d="M 77.659 42.659 c -1.293 0 -2.341 1.048 -2.341 2.341 s 1.048 2.341 2.341 2.341 S 80 46.293 80 45 S 78.952 42.659 77.659 42.659 L 77.659 42.659 z" style="stroke: none; stroke-width: 1; stroke-dasharray: none; stroke-linecap: butt; stroke-linejoin: miter; stroke-miterlimit: 10; fill: rgb(0,0,0); fill-rule: nonzero; opacity: 1;" transform=" matrix(1 0 0 1 0 0) " stroke-linecap="round" />
	<path d="M 12.341 42.659 C 11.048 42.659 10 43.707 10 45 s 1.048 2.341 2.341 2.341 s 2.341 -1.048 2.341 -2.341 S 13.633 42.659 12.341 42.659 L 12.341 42.659 z" style="stroke: none; stroke-width: 1; stroke-dasharray: none; stroke-linecap: butt; stroke-linejoin: miter; stroke-miterlimit: 10; fill: rgb(0,0,0); fill-rule: nonzero; opacity: 1;" transform=" matrix(1 0 0 1 0 0) " stroke-linecap="round" />
	<path d="M 45 10 c -1.293 0 -2.341 1.048 -2.341 2.341 s 1.048 2.341 2.341 2.341 s 2.341 -1.048 2.341 -2.341 S 46.293 10 45 10 L 45 10 z" style="stroke: none; stroke-width: 1; stroke-dasharray: none; stroke-linecap: butt; stroke-linejoin: miter; stroke-miterlimit: 10; fill: rgb(0,0,0); fill-rule: nonzero; opacity: 1;" transform=" matrix(1 0 0 1 0 0) " stroke-linecap="round" />
	<path d="M 45 75.319 c -1.293 0 -2.341 1.048 -2.341 2.341 S 43.707 80 45 80 s 2.341 -1.048 2.341 -2.341 S 46.293 75.319 45 75.319 L 45 75.319 z" style="stroke: none; stroke-width: 1; stroke-dasharray: none; stroke-linecap: butt; stroke-linejoin: miter; stroke-miterlimit: 10; fill: rgb(0,0,0); fill-rule: nonzero; opacity: 1;" transform=" matrix(1 0 0 1 0 0) " stroke-linecap="round" />
</g>
</svg>