<svg xmlns="http://www.w3.org/2000/svg" xmlns:xlink="http://www.w3.org/1999/xlink" version="1.1" width="256" height="256" viewBox="0 0 256 256" xml:space="preserve">

<defs>
</defs>
<g style="stroke: none; stroke-width: 0; stroke-dasharray: none; stroke-linecap: butt; stroke-linejoin: miter; stroke-miterlimit: 10; fill: none; fill-rule: nonzero; opacity: 1;" transform="translate(1.4065934065934016 1.4065934065934016) scale(2.81 2.81)" >
	<path d="M 45 8.555 l 10.855 20.523 c -3.61 -1.189 -7.236 -1.788 -10.855 -1.788 c -3.619 0 -7.245 0.598 -10.855 1.788 L 45 8.555 M 45 0 L 24.723 38.337 C 31.482 33.64 38.241 31.291 45 31.291 s 13.518 2.349 20.277 7.046 L 45 0 L 45 0 z" style="stroke: none; stroke-width: 1; stroke-dasharray: none; stroke-linecap: butt; stroke-linejoin: miter; stroke-miterlimit: 10; fill: rgb(0,0,0); fill-rule: nonzero; opacity: 1;" transform=" matrix(1 0 0 1 0 0) " stroke-linecap="round" />
	<path d="M 45 40.635 c 12.507 0 22.682 10.175 22.682 22.682 S 57.507 86 45 86 S 22.318 75.825 22.318 63.318 S 32.493 40.635 45 40.635 M 45 36.635 c -14.736 0 -26.682 11.946 -26.682 26.682 S 30.264 90 45 90 s 26.682 -11.946 26.682 -26.682 S 59.736 36.635 45 36.635 L 45 36.635 z" style="stroke: none; stroke-width: 1; stroke-dasharray: none; stroke-linecap: butt; stroke-linejoin: miter; stroke-miterlimit: 10; fill: rgb(0,0,0); fill-rule: nonzero; opacity: 1;" transform=" matrix(1 0 0 1 0 0) " stroke-linecap="round" />
	<polygon points="50.59,51.67 50.59,67.25 38.47,51.67 35.41,51.67 35.41,75.07 39.41,75.07 39.41,59.39 51.68,75.17 54.59,75.17 54.59,51.67 " style="stroke: none; stroke-width: 1; stroke-dasharray: none; stroke-linecap: butt; stroke-linejoin: miter; stroke-miterlimit: 10; fill: rgb(0,0,0); fill-rule: nonzero; opacity: 1;" transform="  matrix(1 0 0 1 0 0) "/>
</g>
</svg>