<svg xmlns="http://www.w3.org/2000/svg" xmlns:xlink="http://www.w3.org/1999/xlink" version="1.1" width="256" height="256" viewBox="0 0 256 256" xml:space="preserve">

<defs>
</defs>
<g style="stroke: none; stroke-width: 0; stroke-dasharray: none; stroke-linecap: butt; stroke-linejoin: miter; stroke-miterlimit: 10; fill: none; fill-rule: nonzero; opacity: 1;" transform="translate(1.4065934065934016 1.4065934065934016) scale(2.81 2.81)" >
	<path d="M 50.463 15.919 c -0.461 0 -0.91 -0.202 -1.217 -0.57 l -8.126 -9.752 v 8.738 c 0 0.875 -0.709 1.584 -1.584 1.584 s -1.584 -0.709 -1.584 -1.584 V 1.222 c 0 -0.667 0.418 -1.262 1.045 -1.49 c 0.628 -0.227 1.33 -0.036 1.756 0.475 l 8.126 9.752 V 1.222 c 0 -0.875 0.709 -1.584 1.584 -1.584 s 1.584 0.709 1.584 1.584 v 13.113 c 0 0.667 -0.418 1.262 -1.045 1.49 C 50.826 15.888 50.644 15.919 50.463 15.919 z" style="stroke: none; stroke-width: 1; stroke-dasharray: none; stroke-linecap: butt; stroke-linejoin: miter; stroke-miterlimit: 10; fill: rgb(0,0,0); fill-rule: nonzero; opacity: 1;" transform=" matrix(1 0 0 1 0 0) " stroke-linecap="round" />
	<path d="M 69.188 32.862 l -7.322 11.293 c -0.232 0.358 -0.662 0.536 -1.079 0.447 l -3.273 -0.698 c -0.397 -0.085 -0.708 -0.395 -0.793 -0.793 l -0.698 -3.273 c -0.089 -0.418 0.089 -0.847 0.447 -1.079 l 11.293 -7.322 C 68.696 30.832 69.793 31.929 69.188 32.862 z" style="stroke: none; stroke-width: 1; stroke-dasharray: none; stroke-linecap: butt; stroke-linejoin: miter; stroke-miterlimit: 10; fill: rgb(0,0,0); fill-rule: nonzero; opacity: 1;" transform=" matrix(1 0 0 1 0 0) " stroke-linecap="round" />
	<path d="M 46.008 22.425 l 4.777 22.393 c 0.073 0.341 -0.032 0.697 -0.279 0.944 l -4.777 4.777 c -0.402 0.402 -1.055 0.402 -1.457 0 l -4.777 -4.777 c -0.247 -0.247 -0.352 -0.602 -0.279 -0.944 l 4.777 -22.393 C 44.224 21.338 45.776 21.338 46.008 22.425 z" style="stroke: none; stroke-width: 1; stroke-dasharray: none; stroke-linecap: butt; stroke-linejoin: miter; stroke-miterlimit: 10; fill: rgb(0,0,0); fill-rule: nonzero; opacity: 1;" transform=" matrix(1 0 0 1 0 0) " stroke-linecap="round" />
	<path d="M 22.237 31.436 l 11.293 7.322 c 0.358 0.232 0.536 0.662 0.447 1.079 l -0.698 3.273 c -0.085 0.397 -0.395 0.708 -0.793 0.793 l -3.273 0.698 c -0.418 0.089 -0.847 -0.089 -1.08 -0.447 l -7.322 -11.294 C 20.207 31.928 21.304 30.831 22.237 31.436 z" style="stroke: none; stroke-width: 1; stroke-dasharray: none; stroke-linecap: butt; stroke-linejoin: miter; stroke-miterlimit: 10; fill: rgb(0,0,0); fill-rule: nonzero; opacity: 1;" transform=" matrix(1 0 0 1 0 0) " stroke-linecap="round" />
	<path d="M 35.138 50.119 l 4.777 4.777 c 0.402 0.402 0.402 1.055 0 1.457 l -4.777 4.777 c -0.247 0.247 -0.602 0.352 -0.944 0.279 l -6.551 -1.398 c -0.008 -0.002 -0.017 -0.004 -0.025 -0.005 l -15.816 -3.374 c -1.087 -0.232 -1.087 -1.783 0 -2.015 l 22.393 -4.777 C 34.536 49.767 34.891 49.872 35.138 50.119 z" style="stroke: none; stroke-width: 1; stroke-dasharray: none; stroke-linecap: butt; stroke-linejoin: miter; stroke-miterlimit: 10; fill: rgb(0,0,0); fill-rule: nonzero; opacity: 1;" transform=" matrix(1 0 0 1 0 0) " stroke-linecap="round" />
	<path d="M 20.812 78.387 l 7.321 -11.293 c 0.232 -0.358 0.662 -0.536 1.08 -0.447 l 3.274 0.698 c 0.397 0.085 0.708 0.395 0.793 0.793 l 0.698 3.273 c 0.089 0.418 -0.089 0.847 -0.447 1.079 l -11.293 7.322 C 21.304 80.417 20.207 79.32 20.812 78.387 z" style="stroke: none; stroke-width: 1; stroke-dasharray: none; stroke-linecap: butt; stroke-linejoin: miter; stroke-miterlimit: 10; fill: rgb(0,0,0); fill-rule: nonzero; opacity: 1;" transform=" matrix(1 0 0 1 0 0) " stroke-linecap="round" />
	<path d="M 43.992 88.823 L 39.215 66.43 c -0.073 -0.341 0.032 -0.697 0.279 -0.944 l 4.777 -4.777 c 0.402 -0.402 1.055 -0.402 1.457 0 l 4.777 4.777 c 0.247 0.247 0.352 0.602 0.279 0.944 l -4.777 22.393 C 45.776 89.91 44.224 89.91 43.992 88.823 z" style="stroke: none; stroke-width: 1; stroke-dasharray: none; stroke-linecap: butt; stroke-linejoin: miter; stroke-miterlimit: 10; fill: rgb(0,0,0); fill-rule: nonzero; opacity: 1;" transform=" matrix(1 0 0 1 0 0) " stroke-linecap="round" />
	<path d="M 67.763 79.812 L 56.47 72.49 c -0.358 -0.232 -0.536 -0.662 -0.447 -1.079 l 0.698 -3.273 c 0.085 -0.397 0.395 -0.708 0.793 -0.793 l 3.274 -0.698 c 0.418 -0.089 0.847 0.089 1.08 0.447 l 7.321 11.293 C 69.793 79.32 68.696 80.417 67.763 79.812 z" style="stroke: none; stroke-width: 1; stroke-dasharray: none; stroke-linecap: butt; stroke-linejoin: miter; stroke-miterlimit: 10; fill: rgb(0,0,0); fill-rule: nonzero; opacity: 1;" transform=" matrix(1 0 0 1 0 0) " stroke-linecap="round" />
	<path d="M 62.384 60.006 c -0.013 0.002 -0.025 0.006 -0.037 0.008 l -6.541 1.395 c -0.341 0.073 -0.697 -0.032 -0.944 -0.279 l -4.777 -4.777 c -0.402 -0.402 -0.402 -1.055 0 -1.457 l 4.777 -4.777 c 0.247 -0.247 0.602 -0.352 0.944 -0.279 l 22.393 4.777 c 1.087 0.232 1.087 1.783 0 2.015 L 62.384 60.006 z" style="stroke: none; stroke-width: 1; stroke-dasharray: none; stroke-linecap: butt; stroke-linejoin: miter; stroke-miterlimit: 10; fill: rgb(0,0,0); fill-rule: nonzero; opacity: 1;" transform=" matrix(1 0 0 1 0 0) " stroke-linecap="round" />
</g>
</svg>