<svg xmlns="http://www.w3.org/2000/svg" xmlns:xlink="http://www.w3.org/1999/xlink" version="1.1" width="256" height="256" viewBox="0 0 256 256" xml:space="preserve">

<defs>
</defs>
<g style="stroke: none; stroke-width: 0; stroke-dasharray: none; stroke-linecap: butt; stroke-linejoin: miter; stroke-miterlimit: 10; fill: none; fill-rule: nonzero; opacity: 1;" transform="translate(1.4065934065934016 1.4065934065934016) scale(2.81 2.81)" >
	<path d="M 45 4 c 22.607 0 41 18.393 41 41 S 67.607 86 45 86 S 4 67.607 4 45 S 22.393 4 45 4 M 45 0 C 20.147 0 0 20.147 0 45 s 20.147 45 45 45 s 45 -20.147 45 -45 S 69.853 0 45 0 L 45 0 z" style="stroke: none; stroke-width: 1; stroke-dasharray: none; stroke-linecap: butt; stroke-linejoin: miter; stroke-miterlimit: 10; fill: rgb(0,0,0); fill-rule: nonzero; opacity: 1;" transform=" matrix(1 0 0 1 0 0) " stroke-linecap="round" />
	<path d="M 77.659 42.659 c -1.293 0 -2.341 1.048 -2.341 2.341 s 1.048 2.341 2.341 2.341 S 80 46.293 80 45 S 78.952 42.659 77.659 42.659 L 77.659 42.659 z" style="stroke: none; stroke-width: 1; stroke-dasharray: none; stroke-linecap: butt; stroke-linejoin: miter; stroke-miterlimit: 10; fill: rgb(0,0,0); fill-rule: nonzero; opacity: 1;" transform=" matrix(1 0 0 1 0 0) " stroke-linecap="round" />
	<path d="M 12.341 42.659 C 11.048 42.659 10 43.707 10 45 s 1.048 2.341 2.341 2.341 s 2.341 -1.048 2.341 -2.341 S 13.633 42.659 12.341 42.659 L 12.341 42.659 z" style="stroke: none; stroke-width: 1; stroke-dasharray: none; stroke-linecap: butt; stroke-linejoin: miter; stroke-miterlimit: 10; fill: rgb(0,0,0); fill-rule: nonzero; opacity: 1;" transform=" matrix(1 0 0 1 0 0) " stroke-linecap="round" />
	<path d="M 45 10 c -1.293 0 -2.341 1.048 -2.341 2.341 s 1.048 2.341 2.341 2.341 s 2.341 -1.048 2.341 -2.341 S 46.293 10 45 10 L 45 10 z" style="stroke: none; stroke-width: 1; stroke-dasharray: none; stroke-linecap: butt; stroke-linejoin: miter; stroke-miterlimit: 10; fill: rgb(0,0,0); fill-rule: nonzero; opacity: 1;" transform=" matrix(1 0 0 1 0 0) " stroke-linecap="round" />
	<path d="M 45 75.319 c -1.293 0 -2.341 1.048 -2.341 2.341 S 43.707 80 45 80 s 2.341 -1.048 2.341 -2.341 S 46.293 75.319 45 75.319 L 45 75.319 z" style="stroke: none; stroke-width: 1; stroke-dasharray: none; stroke-linecap: butt; stroke-linejoin: miter; stroke-miterlimit: 10; fill: rgb(0,0,0); fill-rule: nonzero; opacity: 1;" transform=" matrix(1 0 0 1 0 0) " stroke-linecap="round" />
	<path d="M 45 59.231 c -7.419 0 -13.455 -6.036 -13.455 -13.455 c 0 -7.883 7.46 -18.185 11.907 -23.625 L 45 20.257 l 1.549 1.895 c 4.446 5.439 11.906 15.742 11.906 23.625 C 58.455 53.195 52.419 59.231 45 59.231 z M 45 26.628 c -5.954 7.685 -9.455 14.738 -9.455 19.148 c 0 5.214 4.242 9.455 9.455 9.455 c 5.214 0 9.455 -4.241 9.455 -9.455 C 54.455 41.367 50.954 34.313 45 26.628 z" style="stroke: none; stroke-width: 1; stroke-dasharray: none; stroke-linecap: butt; stroke-linejoin: miter; stroke-miterlimit: 10; fill: rgb(0,0,0); fill-rule: nonzero; opacity: 1;" transform=" matrix(1 0 0 1 0 0) " stroke-linecap="round" />
	<path d="M 45 42.981 c 1.114 0 2.019 0.906 2.019 2.019 S 46.114 47.019 45 47.019 S 42.981 46.114 42.981 45 S 43.886 42.981 45 42.981 M 45 39.981 c -2.772 0 -5.019 2.247 -5.019 5.019 s 2.247 5.019 5.019 5.019 s 5.019 -2.247 5.019 -5.019 S 47.772 39.981 45 39.981 L 45 39.981 z" style="stroke: none; stroke-width: 1; stroke-dasharray: none; stroke-linecap: butt; stroke-linejoin: miter; stroke-miterlimit: 10; fill: rgb(0,0,0); fill-rule: nonzero; opacity: 1;" transform=" matrix(1 0 0 1 0 0) " stroke-linecap="round" />
</g>
</svg>